HIERARCHY
ROOT Hips
{
	OFFSET 0.000000 0.000000 0.000000
	CHANNELS 6 Xposition Yposition Zposition Zrotation Yrotation Xrotation 
	JOINT LeftUpLeg_virtual
	{
		OFFSET 0.000000 0.000000 0.000000
		CHANNELS 3 Zrotation Yrotation Xrotation
		JOINT LeftUpLeg
		{
			OFFSET 8.479694 -4.795517 -0.379053
			CHANNELS 3 Zrotation Yrotation Xrotation
			JOINT LeftLeg
			{
				OFFSET 0.485052 -32.551468 0.112863
				CHANNELS 3 Zrotation Yrotation Xrotation
				JOINT LeftFoot
				{
					OFFSET 0.438033 -32.635670 -3.012641
					CHANNELS 3 Zrotation Yrotation Xrotation
					JOINT LeftToeBase
					{
						OFFSET 0.970169 -13.225353 11.864223
						CHANNELS 3 Zrotation Yrotation Xrotation
						End Site
						{
							OFFSET 0.000000 0.000000 0.000000
						}
					}
				}
			}
		}
	}
	JOINT RightUpLeg_virtual
	{
		OFFSET 0.000000 0.000000 0.000000
		CHANNELS 3 Zrotation Yrotation Xrotation
		JOINT RightUpLeg
		{
			OFFSET -8.479694 -4.795517 -0.379053
			CHANNELS 3 Zrotation Yrotation Xrotation
			JOINT RightLeg
			{
				OFFSET -0.484100 -32.551483 0.112903
				CHANNELS 3 Zrotation Yrotation Xrotation
				JOINT RightFoot
				{
					OFFSET -0.438985 -32.635651 -3.012681
					CHANNELS 3 Zrotation Yrotation Xrotation
					JOINT RightToeBase
					{
						OFFSET -0.970169 -13.225354 11.864223
						CHANNELS 3 Zrotation Yrotation Xrotation
						End Site
						{
							OFFSET 0.000000 0.000000 0.000000
						}
					}
				}
			}
		}
	}
	JOINT Spine_virtual
	{
		OFFSET 0.000000 0.000000 0.000000
		CHANNELS 3 Zrotation Yrotation Xrotation
		JOINT Spine
		{
			OFFSET 0.000000 7.722015 1.166203
			CHANNELS 3 Zrotation Yrotation Xrotation
			JOINT Spine1
			{
				OFFSET 0.000000 12.024086 0.248766
				CHANNELS 3 Zrotation Yrotation Xrotation
				JOINT Spine2
				{
					OFFSET -0.000000 11.503036 -0.491240
					CHANNELS 3 Zrotation Yrotation Xrotation
					JOINT Neck_virtual
					{
						OFFSET 0.000000 0.000000 0.000000
						CHANNELS 3 Zrotation Yrotation Xrotation
						JOINT Neck
						{
							OFFSET 0.000000 18.430687 -3.123054
							CHANNELS 3 Zrotation Yrotation Xrotation
							JOINT Head
							{
								OFFSET -0.000000 9.051071 1.034021
								CHANNELS 3 Zrotation Yrotation Xrotation
								End Site
								{
									OFFSET 0.000000 0.000000 0.000000
								}
							}
						}
					}
					JOINT LeftShoulder_virtual
					{
						OFFSET 0.000000 0.000000 0.000000
						CHANNELS 3 Zrotation Yrotation Xrotation
						JOINT LeftShoulder
						{
							OFFSET 6.197824 13.665230 -4.064723
							CHANNELS 3 Zrotation Yrotation Xrotation
							JOINT LeftArm
							{
								OFFSET 7.778132 -0.187073 -1.709282
								CHANNELS 3 Zrotation Yrotation Xrotation
								JOINT LeftForeArm
								{
									OFFSET 21.954697 0.000000 -2.041093
									CHANNELS 3 Zrotation Yrotation Xrotation
									JOINT LeftHand
									{
										OFFSET 22.992908 0.000000 -0.870901
										CHANNELS 3 Zrotation Yrotation Xrotation
										End Site
										{
											OFFSET 0.000000 0.000000 0.000000
										}
									}
								}
							}
						}
					}
					JOINT RightShoulder_virtual
					{
						OFFSET 0.000000 0.000000 0.000000
						CHANNELS 3 Zrotation Yrotation Xrotation
						JOINT RightShoulder
						{
							OFFSET -6.197824 13.665230 -4.064723
							CHANNELS 3 Zrotation Yrotation Xrotation
							JOINT RightArm
							{
								OFFSET -7.778132 -0.187073 -1.709282
								CHANNELS 3 Zrotation Yrotation Xrotation
								JOINT RightForeArm
								{
									OFFSET -21.954697 0.000000 -2.041093
									CHANNELS 3 Zrotation Yrotation Xrotation
									JOINT RightHand
									{
										OFFSET -22.992908 0.000000 -0.870901
										CHANNELS 3 Zrotation Yrotation Xrotation
										End Site
										{
											OFFSET 0.000000 0.000000 0.000000
										}
									}
								}
							}
						}
					}
				}
			}
		}
	}
}
MOTION
Frames: 4
Frame Time: 0.033333
1.566169 80.886276 32.773384 179.880873 0.871800 -179.943915 -4.150924 -1.446273 11.190863 -3.086195 -2.592496 -22.856562 9.685561 3.896317 31.816257 2.146947 -8.286896 -15.256833 0.000000 0.000000 0.000000 -0.864532 -0.959382 10.315087 -1.120358 0.664469 -20.607673 -0.842766 3.700996 30.629481 8.176204 5.149298 -13.090469 0.000000 0.000000 0.000000 2.076164 1.346941 -0.728686 -5.121894 1.749092 -2.809934 0.688862 -3.051432 4.110795 0.015630 0.072541 -0.100096 0.750766 -2.330190 5.254470 -1.282530 3.561142 -4.864130 0.000000 0.000000 0.000000 2.066268 -1.508704 2.376336 -1.086910 4.654870 -5.735240 -4.011822 -13.933729 -49.301651 1.902536 -32.090380 -3.108963 0.000000 0.000000 0.000000 -1.507128 -0.369873 1.971119 21.701174 -3.981564 -6.390134 -0.962071 7.927915 -64.813277 1.296473 22.311520 4.299752 0.000000 0.000000 0.000000 
1.613734 80.902847 32.813087 179.808896 1.510566 -179.959133 -4.033891 -1.507640 11.363790 -2.827111 -3.147489 -22.646626 9.788461 3.550627 31.953100 2.207603 -8.245024 -15.937915 0.000000 0.000000 0.000000 -0.850812 -0.690086 10.243613 -1.011900 0.470981 -20.583228 -0.697541 3.870617 30.822246 8.402253 5.406331 -12.890469 0.000000 0.000000 0.000000 2.011509 1.541683 -0.672339 -5.121179 1.874053 -2.807386 0.695702 -2.900716 4.106396 0.025117 0.223569 0.019511 0.754755 -2.339823 5.194455 -1.188790 3.446038 -4.779094 0.000000 0.000000 0.000000 2.017057 -1.553198 2.288233 -1.116249 4.612971 -5.685473 -3.880946 -13.876774 -49.302553 1.924257 -32.293479 -3.099704 0.000000 0.000000 0.000000 -1.568551 -0.381907 1.802320 21.891031 -4.054409 -6.280655 -1.111449 7.801480 -64.690019 1.240616 22.468245 4.263796 0.000000 0.000000 0.000000 
1.698567 80.898491 32.866493 179.813281 1.467131 -179.939531 -4.051775 -1.583812 11.295057 -2.706476 -3.184544 -22.662137 9.814232 3.535939 31.999225 2.140384 -8.292294 -15.993788 0.000000 0.000000 0.000000 -0.902054 -0.934458 10.215578 -0.892524 0.609721 -20.496424 -0.719971 3.943345 30.541946 8.412706 5.393355 -12.973909 0.000000 0.000000 0.000000 1.954752 1.414615 -0.634187 -5.093256 1.741468 -2.756957 0.638825 -3.031546 4.091373 0.060769 0.090490 0.007377 0.664244 -2.317863 5.163004 -1.076648 3.334579 -4.702803 0.000000 0.000000 0.000000 1.932601 -1.450083 2.196162 -1.123715 4.708179 -5.655397 -3.667464 -13.741787 -49.308512 1.979502 -32.556558 -3.120363 0.000000 0.000000 0.000000 -1.627372 -0.305802 1.872084 22.057587 -4.022071 -6.523836 -1.042769 7.910364 -64.570423 1.341122 22.655884 4.401852 0.000000 0.000000 0.000000 
1.790379 80.883514 32.931995 179.826518 1.678647 -179.952139 -4.068114 -1.503153 11.154612 -2.588456 -3.060251 -22.613636 9.853635 3.580054 32.100960 2.113853 -8.296891 -16.159118 0.000000 0.000000 0.000000 -1.009876 -1.064835 10.171233 -0.779517 0.990308 -20.339335 -0.765917 3.999481 30.276371 8.387202 5.331401 -13.007574 0.000000 0.000000 0.000000 1.895779 1.378886 -0.578149 -5.024869 1.771358 -2.638379 0.594090 -3.008410 4.079148 0.045877 0.108134 0.003142 0.489825 -2.373642 5.096353 -0.973388 3.254680 -4.581248 0.000000 0.000000 0.000000 1.890432 -1.477069 2.137008 -1.177592 4.628823 -5.646736 -3.279951 -13.613094 -49.506061 1.921434 -32.735799 -3.008766 0.000000 0.000000 0.000000 -1.705954 -0.365524 1.740827 22.448308 -4.210265 -6.498536 -1.177461 7.817977 -64.549044 1.375625 22.838069 4.385305 0.000000 0.000000 0.000000 
